<?xml version="1.0" encoding="utf-8"?>
<!-- Generator: Adobe Illustrator 17.0.0, SVG Export Plug-In . SVG Version: 6.00 Build 0)  -->
<!DOCTYPE svg PUBLIC "-//W3C//DTD SVG 1.1//EN" "http://www.w3.org/Graphics/SVG/1.1/DTD/svg11.dtd">
<svg version="1.1" id="Capa_1" xmlns:sketch="http://www.bohemiancoding.com/sketch/ns"
	 xmlns="http://www.w3.org/2000/svg" xmlns:xlink="http://www.w3.org/1999/xlink" x="0px" y="0px" width="173px" height="58.609px"
	 viewBox="0 0 173 58.609" enable-background="new 0 0 173 58.609" xml:space="preserve">
<title>iconos_logotipo</title>
<desc>Created with Sketch.</desc>
<g id="Welcome" sketch:type="MSPage">
	<g id="Desktop_C-Menu" transform="translate(-786.000000, -31.000000)" sketch:type="MSArtboardGroup">
		<g id="MainMenu" transform="translate(640.000000, 0.000000)" sketch:type="MSLayerGroup">
			<g id="iconos_logotipo" transform="translate(144.000000, 31.000000)">
				<g id="Group_1_" transform="translate(0.027568, 0.203392)">
					<g id="Clipped">
						<g id="Rectangle-path">
						</g>
						<defs>
							<filter id="Adobe_OpacityMaskFilter" filterUnits="userSpaceOnUse" x="2.659" y="-2.201" width="171.238" height="32.648">
								<feColorMatrix  type="matrix" values="1 0 0 0 0  0 1 0 0 0  0 0 1 0 0  0 0 0 1 0"/>
							</filter>
						</defs>
						<mask maskUnits="userSpaceOnUse" x="2.659" y="-2.201" width="171.238" height="32.648" id="mask-2">
							<g filter="url(#Adobe_OpacityMaskFilter)">
								<rect id="path-1" x="0.023" y="0.01" fill="#FFFFFF" width="178.644" height="27.881"/>
							</g>
						</mask>
						<g id="Group" sketch:type="MSShapeGroup" mask="url(#mask-2)">
							<g transform="translate(2.596780, -2.276280)">
								<rect id="Rectangle-path_1_" x="0.062" y="0.681" fill="#FFF" width="6.885" height="31.358"/>
								<path id="Shape" fill="#FFF" d="M37.192,0.683v5.34H26.39c-2.497,0-4.355,0.771-5.575,2.312
									c-1.424,1.804-2.134,4.83-2.134,9.076c0,3.87,0.726,6.458,2.178,7.767c1.045,0.932,2.888,1.397,5.531,1.397h10.801v5.466
									H26.123c-9.761,0-14.642-5.03-14.642-15.09c0-5.175,1.046-9.085,3.137-11.732c2.411-3.023,6.305-4.535,11.679-4.535H37.192
									L37.192,0.683z"/>
								<path id="Shape_1_" fill="#FFF" d="M47.051,16.282c0,7.362,2.83,11.044,8.493,11.044c5.691,0,8.537-3.637,8.537-10.913
									c0-7.304-2.846-10.957-8.537-10.957C49.881,5.455,47.051,9.064,47.051,16.282 M55.505,0.075
									c4.822,0,8.498,1.063,11.026,3.186c3.167,2.619,4.75,6.998,4.75,13.138c0,10.884-5.23,16.324-15.688,16.324
									c-5.346,0-9.298-1.359-11.854-4.081c-2.557-2.72-3.834-6.831-3.834-12.331C39.904,5.487,45.104,0.075,55.505,0.075"/>
								<path id="Shape_2_" fill="#FFF" d="M82.381,32.04h-6.745V0.682h8.372l12.774,22.583L96.509,0.682h6.639V32.04h-7.589
									L82.127,8.335L82.381,32.04L82.381,32.04z"/>
								<path id="Shape_3_" fill="#FFF" d="M114.594,16.282c0,7.362,2.83,11.044,8.494,11.044c5.692,0,8.537-3.637,8.537-10.913
									c0-7.304-2.845-10.957-8.537-10.957C117.424,5.455,114.594,9.064,114.594,16.282 M123.049,0.075
									c4.822,0,8.498,1.063,11.026,3.186c3.167,2.619,4.75,6.998,4.75,13.138c0,10.884-5.229,16.324-15.689,16.324
									c-5.345,0-9.297-1.359-11.854-4.081c-2.557-2.72-3.835-6.831-3.835-12.331C107.448,5.487,112.648,0.075,123.049,0.075"/>
								<path id="Shape_4_" fill="#FFF" d="M152.473,0.683h17.301v5.602h-16.255c-3.429,0-5.142,1.373-5.142,4.117
									c0,2.278,1.393,3.417,4.182,3.417h8.672c3.747,0,6.406,0.756,7.975,2.267c1.452,1.367,2.149,3.561,2.091,6.583
									c-0.059,3.139-0.857,5.434-2.397,6.887c-1.743,1.657-4.606,2.486-8.584,2.486h-17.517v-5.631h16.472
									c2.005,0,3.384-0.362,4.14-1.087c0.61-0.579,0.916-1.578,0.916-2.997c0-0.926-0.234-1.608-0.698-2.042
									c-0.698-0.666-2.005-0.999-3.923-0.999h-7.757c-7.06,0-10.545-3.042-10.458-9.127c0.058-3.114,0.872-5.428,2.441-6.942
									C145.675,1.528,148.522,0.683,152.473,0.683"/>
							</g>
						</g>
					</g>
					<g id="instituto" transform="translate(2.370636, 29.448899)" sketch:type="MSShapeGroup">
						<rect id="Rectangle-path_2_" x="0.142" y="0.624" fill="#FFF" width="1.123" height="6.919"/>
						<path id="Shape_5_" fill="#FFF" d="M2.204,4.125c0-0.626-0.015-1.15-0.03-1.602h0.975l0.052,0.698h0.022
							C3.371,2.893,3.733,2.41,4.339,2.41c0.739,0,1.293,0.688,1.293,2.166v2.967H4.509V4.761c0-0.647-0.163-1.088-0.569-1.088
							c-0.31,0-0.495,0.298-0.576,0.585c-0.03,0.103-0.037,0.246-0.037,0.39v2.895H2.204V4.125L2.204,4.125z"/>
						<path id="Shape_6_" fill="#FFF" d="M6.525,6.188c0.207,0.174,0.636,0.37,0.968,0.37c0.34,0,0.48-0.154,0.48-0.411
							c0-0.267-0.111-0.39-0.525-0.585C6.696,5.223,6.407,4.648,6.415,4.063c0-0.944,0.576-1.653,1.47-1.653
							c0.421,0,0.791,0.144,1.012,0.298L8.705,3.775c-0.162-0.113-0.48-0.277-0.783-0.277c-0.273,0-0.428,0.154-0.428,0.4
							c0,0.246,0.14,0.37,0.583,0.585c0.687,0.318,0.968,0.811,0.975,1.54c0,0.944-0.524,1.632-1.559,1.632
							c-0.473,0-0.894-0.154-1.168-0.359L6.525,6.188L6.525,6.188z"/>
						<path id="Shape_7_" fill="#FFF" d="M10.995,1.159v1.365H11.8v1.15h-0.805v1.827c0,0.606,0.111,0.883,0.443,0.883
							c0.155,0,0.229-0.01,0.332-0.041l0.008,1.181c-0.141,0.072-0.414,0.133-0.724,0.133c-0.362,0-0.665-0.174-0.85-0.431
							c-0.207-0.298-0.31-0.78-0.31-1.489V3.674h-0.48v-1.15h0.48V1.58L10.995,1.159L10.995,1.159z"/>
						<path id="Shape_8_" fill="#FFF" d="M12.45,2.523h1.123v5.02H12.45V2.523L12.45,2.523z M13.004,1.866
							c-0.377,0-0.62-0.37-0.62-0.831c0-0.472,0.251-0.831,0.636-0.831c0.384,0,0.62,0.359,0.628,0.831
							c0,0.462-0.244,0.831-0.635,0.831H13.004L13.004,1.866z"/>
						<path id="Shape_9_" fill="#FFF" d="M15.731,1.159v1.365h0.805v1.15h-0.805v1.827c0,0.606,0.111,0.883,0.443,0.883
							c0.155,0,0.229-0.01,0.332-0.041l0.008,1.181C16.373,7.595,16.1,7.657,15.79,7.657c-0.362,0-0.665-0.174-0.85-0.431
							c-0.207-0.298-0.31-0.78-0.31-1.489V3.674h-0.48v-1.15h0.48V1.58L15.731,1.159L15.731,1.159z"/>
						<path id="Shape_10_" fill="#FFF" d="M20.592,5.933c0,0.657,0.015,1.191,0.03,1.612h-0.975l-0.052-0.708h-0.022
							c-0.141,0.308-0.48,0.821-1.13,0.821c-0.739,0-1.271-0.637-1.271-2.187V2.524h1.123v2.7c0,0.729,0.17,1.17,0.569,1.17
							c0.31,0,0.495-0.298,0.562-0.544c0.029-0.092,0.044-0.205,0.044-0.339V2.524h1.123V5.933L20.592,5.933z"/>
						<path id="Shape_11_" fill="#FFF" d="M22.749,1.159v1.365h0.805v1.15h-0.805v1.827c0,0.606,0.111,0.883,0.443,0.883
							c0.155,0,0.229-0.01,0.332-0.041l0.008,1.181c-0.141,0.072-0.414,0.133-0.724,0.133c-0.362,0-0.665-0.174-0.85-0.431
							c-0.207-0.298-0.31-0.78-0.31-1.489V3.674h-0.48v-1.15h0.48V1.58L22.749,1.159L22.749,1.159z"/>
						<path id="Shape_12_" fill="#FFF" d="M25.852,6.537c0.443,0,0.717-0.606,0.717-1.509c0-0.739-0.207-1.499-0.717-1.499
							c-0.532,0-0.739,0.76-0.739,1.509c0,0.852,0.259,1.499,0.731,1.499H25.852L25.852,6.537z M25.83,7.656
							c-1.056,0-1.869-0.965-1.869-2.587c0-1.622,0.769-2.659,1.936-2.659c1.101,0,1.84,1.057,1.84,2.577
							c0,1.827-0.938,2.669-1.899,2.669H25.83L25.83,7.656z"/>
						<path id="Shape_13_" fill="#FFF" d="M32.301,4.66c0-0.092,0-0.195-0.015-0.288c-0.067-0.421-0.31-0.759-0.657-0.759
							c-0.517,0-0.776,0.637-0.776,1.427c0,0.842,0.303,1.376,0.768,1.376c0.325,0,0.591-0.308,0.657-0.749
							c0.015-0.103,0.022-0.226,0.022-0.349V4.66L32.301,4.66z M33.424,0.255v5.79c0,0.575,0.015,1.16,0.03,1.499h-0.997
							l-0.044-0.729H32.39c-0.222,0.554-0.665,0.842-1.13,0.842c-0.857,0-1.544-1.016-1.544-2.577
							c-0.007-1.684,0.754-2.669,1.618-2.669c0.451,0,0.79,0.226,0.953,0.565h0.015V0.255H33.424L33.424,0.255z"/>
						<path id="Shape_14_" fill="#FFF" d="M36.512,4.453c0-0.369-0.118-1.016-0.628-1.016c-0.48,0-0.672,0.606-0.702,1.016
							H36.512L36.512,4.453z M35.19,5.521c0.037,0.657,0.495,0.965,1.02,0.965c0.384,0,0.694-0.072,0.997-0.216l0.148,1.057
							c-0.369,0.216-0.82,0.318-1.308,0.318c-1.226,0-1.928-0.986-1.928-2.566c0-1.273,0.576-2.679,1.825-2.679
							c1.167,0,1.61,1.263,1.61,2.505c0,0.267-0.022,0.503-0.037,0.626L35.19,5.521L35.19,5.521z"/>
						<rect id="Rectangle-path_3_" x="39.763" y="0.624" fill="#FFF" width="1.123" height="6.919"/>
						<path id="Shape_15_" fill="#FFF" d="M41.824,4.125c0-0.626-0.015-1.15-0.03-1.602h0.975l0.052,0.698h0.022
							c0.148-0.328,0.51-0.811,1.116-0.811c0.739,0,1.293,0.688,1.293,2.166v2.967h-1.123V4.761c0-0.647-0.163-1.088-0.569-1.088
							c-0.31,0-0.495,0.298-0.576,0.585c-0.03,0.103-0.037,0.246-0.037,0.39v2.895h-1.123V4.125L41.824,4.125z"/>
						<path id="Shape_16_" fill="#FFF" d="M46.848,2.523l0.488,2.33c0.089,0.421,0.148,0.821,0.207,1.222h0.022
							c0.059-0.411,0.118-0.791,0.2-1.222l0.465-2.33h1.182l-1.345,5.02h-1.123l-1.315-5.02H46.848L46.848,2.523z"/>
						<path id="Shape_17_" fill="#FFF" d="M51.975,4.453c0-0.369-0.118-1.016-0.628-1.016c-0.48,0-0.672,0.606-0.702,1.016
							H51.975L51.975,4.453z M50.653,5.521c0.037,0.657,0.495,0.965,1.02,0.965c0.384,0,0.695-0.072,0.997-0.216l0.148,1.057
							c-0.369,0.216-0.82,0.318-1.308,0.318c-1.226,0-1.928-0.986-1.928-2.566c0-1.273,0.576-2.679,1.825-2.679
							c1.167,0,1.61,1.263,1.61,2.505c0,0.267-0.022,0.503-0.037,0.626L50.653,5.521L50.653,5.521z"/>
						<path id="Shape_18_" fill="#FFF" d="M53.682,6.188c0.207,0.174,0.636,0.37,0.968,0.37c0.34,0,0.48-0.154,0.48-0.411
							c0-0.267-0.111-0.39-0.524-0.585c-0.754-0.339-1.042-0.914-1.034-1.499c0-0.944,0.576-1.653,1.47-1.653
							c0.421,0,0.79,0.144,1.012,0.298l-0.192,1.067c-0.163-0.113-0.48-0.277-0.783-0.277c-0.273,0-0.428,0.154-0.428,0.4
							c0,0.246,0.14,0.37,0.583,0.585c0.687,0.318,0.968,0.811,0.975,1.54c0,0.944-0.525,1.632-1.559,1.632
							c-0.473,0-0.894-0.154-1.167-0.359L53.682,6.188L53.682,6.188z"/>
						<path id="Shape_19_" fill="#FFF" d="M58.151,1.159v1.365h0.805v1.15h-0.805v1.827c0,0.606,0.111,0.883,0.443,0.883
							c0.155,0,0.229-0.01,0.332-0.041l0.008,1.181c-0.141,0.072-0.414,0.133-0.724,0.133c-0.362,0-0.665-0.174-0.85-0.431
							c-0.207-0.298-0.31-0.78-0.31-1.489V3.674h-0.48v-1.15h0.48V1.58L58.151,1.159L58.151,1.159z"/>
						<path id="Shape_20_" fill="#FFF" d="M59.606,2.523h1.123v5.02h-1.123V2.523L59.606,2.523z M60.16,1.866
							c-0.377,0-0.621-0.37-0.621-0.831c0-0.472,0.251-0.831,0.636-0.831c0.384,0,0.621,0.359,0.628,0.831
							c0,0.462-0.244,0.831-0.635,0.831H60.16L60.16,1.866z"/>
						<path id="Shape_21_" fill="#FFF" d="M63.928,4.567c0-0.093-0.007-0.195-0.022-0.288c-0.081-0.411-0.295-0.688-0.606-0.688
							c-0.414,0-0.739,0.513-0.739,1.427c0,0.75,0.266,1.335,0.731,1.335c0.296,0,0.524-0.267,0.598-0.626
							c0.03-0.123,0.037-0.287,0.037-0.421V4.567L63.928,4.567z M65.051,6.815c0,0.965-0.14,1.755-0.554,2.259
							c-0.392,0.472-0.931,0.616-1.463,0.616c-0.48,0-0.975-0.133-1.301-0.38l0.222-1.191c0.229,0.185,0.621,0.38,1.049,0.38
							c0.532,0,0.938-0.39,0.938-1.324V6.856h-0.015c-0.214,0.411-0.561,0.647-0.975,0.647c-0.894,0-1.529-1.006-1.529-2.443
							c0-1.622,0.746-2.648,1.64-2.648c0.495,0,0.805,0.298,0.99,0.708h0.015l0.037-0.595h0.975
							c-0.015,0.329-0.029,0.749-0.029,1.499V6.815L65.051,6.815z"/>
						<path id="Shape_22_" fill="#FFF" d="M67.873,5.172c-0.591,0-1.049,0.195-1.049,0.79c0,0.4,0.192,0.596,0.443,0.596
							c0.273,0,0.51-0.257,0.584-0.575c0.015-0.082,0.022-0.174,0.022-0.267V5.172L67.873,5.172z M68.959,6.333
							c0,0.472,0.015,0.934,0.059,1.211h-1.012L67.94,7.041h-0.022c-0.236,0.4-0.606,0.616-1.034,0.616
							c-0.731,0-1.167-0.739-1.167-1.54c0-1.304,0.842-1.92,2.12-1.92V4.136c0-0.267-0.104-0.647-0.658-0.647
							c-0.369,0-0.761,0.174-0.997,0.369l-0.207-0.996c0.251-0.195,0.746-0.452,1.404-0.452c1.204,0,1.581,0.985,1.581,2.166V6.333
							L68.959,6.333z"/>
						<path id="Shape_23_" fill="#FFF" d="M72.564,7.42c-0.199,0.133-0.576,0.236-1.004,0.236c-1.167,0-1.913-0.996-1.913-2.577
							c0-1.468,0.724-2.669,2.069-2.669c0.295,0,0.62,0.072,0.857,0.195l-0.177,1.16c-0.133-0.082-0.332-0.154-0.628-0.154
							c-0.591,0-0.975,0.585-0.968,1.406c0,0.924,0.443,1.417,0.99,1.417c0.266,0,0.473-0.062,0.643-0.164L72.564,7.42L72.564,7.42z
							"/>
						<path id="Shape_24_" fill="#FFF" d="M73.185,2.523h1.123v5.02h-1.123V2.523L73.185,2.523z M73.739,1.866
							c-0.377,0-0.621-0.37-0.621-0.831c0-0.472,0.251-0.831,0.635-0.831c0.384,0,0.621,0.359,0.628,0.831
							c0,0.462-0.244,0.831-0.635,0.831H73.739L73.739,1.866z"/>
						<path id="Shape_25_" fill="#FFF" d="M78.069,0.357l-0.902,1.56h-0.768l0.635-1.56H78.069L78.069,0.357z M76.894,6.537
							c0.443,0,0.717-0.606,0.717-1.509c0-0.739-0.207-1.499-0.717-1.499c-0.532,0-0.739,0.76-0.739,1.509
							c0,0.852,0.259,1.499,0.731,1.499H76.894L76.894,6.537z M76.872,7.656c-1.057,0-1.869-0.965-1.869-2.587
							c0-1.622,0.768-2.659,1.936-2.659c1.101,0,1.839,1.057,1.839,2.577c0,1.827-0.938,2.669-1.899,2.669H76.872L76.872,7.656z"/>
						<path id="Shape_26_" fill="#FFF" d="M79.472,4.125c0-0.626-0.015-1.15-0.03-1.602h0.975l0.052,0.698h0.022
							c0.148-0.328,0.51-0.811,1.116-0.811c0.739,0,1.293,0.688,1.293,2.166v2.967h-1.123V4.761c0-0.647-0.163-1.088-0.569-1.088
							c-0.31,0-0.495,0.298-0.576,0.585c-0.03,0.103-0.037,0.246-0.037,0.39v2.895h-1.123V4.125L79.472,4.125z"/>
						<path id="Shape_27_" fill="#FFF" d="M87.481,4.453c0-0.369-0.118-1.016-0.628-1.016c-0.48,0-0.672,0.606-0.702,1.016
							H87.481L87.481,4.453z M86.158,5.521c0.037,0.657,0.495,0.965,1.02,0.965c0.384,0,0.694-0.072,0.997-0.216l0.148,1.057
							c-0.369,0.216-0.82,0.318-1.307,0.318c-1.227,0-1.928-0.986-1.928-2.566c0-1.273,0.576-2.679,1.825-2.679
							c1.167,0,1.61,1.263,1.61,2.505c0,0.267-0.022,0.503-0.037,0.626L86.158,5.521L86.158,5.521z"/>
						<path id="Shape_28_" fill="#FFF" d="M89.194,4.125c0-0.626-0.015-1.15-0.029-1.602h0.975l0.052,0.698h0.022
							c0.148-0.328,0.51-0.811,1.115-0.811c0.739,0,1.293,0.688,1.293,2.166v2.967H91.5V4.761c0-0.647-0.163-1.088-0.569-1.088
							c-0.31,0-0.495,0.298-0.576,0.585c-0.03,0.103-0.037,0.246-0.037,0.39v2.895h-1.123V4.125L89.194,4.125z"/>
						<path id="Shape_29_" fill="#FFF" d="M98.703,7.359c-0.199,0.133-0.672,0.298-1.27,0.298c-1.722,0-2.608-1.499-2.608-3.48
							c0-2.361,1.211-3.665,2.719-3.665c0.583,0,1.027,0.164,1.226,0.308l-0.236,1.232c-0.222-0.133-0.539-0.257-0.946-0.257
							c-0.887,0-1.581,0.75-1.581,2.3c0,1.386,0.591,2.258,1.588,2.258c0.347,0,0.717-0.092,0.946-0.226L98.703,7.359L98.703,7.359z
							"/>
						<path id="Shape_30_" fill="#FFF" d="M100.941,6.537c0.443,0,0.717-0.606,0.717-1.509c0-0.739-0.207-1.499-0.717-1.499
							c-0.532,0-0.739,0.76-0.739,1.509c0,0.852,0.259,1.499,0.731,1.499H100.941L100.941,6.537z M100.919,7.656
							c-1.056,0-1.869-0.965-1.869-2.587c0-1.622,0.768-2.659,1.936-2.659c1.101,0,1.84,1.057,1.84,2.577
							c0,1.827-0.938,2.669-1.899,2.669H100.919L100.919,7.656z"/>
						<path id="Shape_31_" fill="#FFF" d="M103.519,4.125c0-0.626-0.015-1.15-0.029-1.602h0.953l0.044,0.688h0.022
							c0.155-0.329,0.48-0.801,1.093-0.801c0.473,0,0.835,0.339,0.99,0.862h0.015c0.141-0.267,0.296-0.472,0.473-0.616
							c0.199-0.154,0.421-0.246,0.687-0.246c0.695,0,1.219,0.678,1.219,2.176v2.956h-1.094v-2.72c0-0.729-0.17-1.15-0.532-1.15
							c-0.266,0-0.443,0.246-0.525,0.544c-0.022,0.113-0.037,0.267-0.037,0.39v2.936h-1.094V4.73c0-0.626-0.163-1.057-0.524-1.057
							c-0.288,0-0.458,0.308-0.525,0.554c-0.037,0.123-0.044,0.267-0.044,0.4v2.915h-1.093V4.125L103.519,4.125z"/>
						<path id="Shape_32_" fill="#FFF" d="M113.278,5.933c0,0.657,0.015,1.191,0.03,1.612h-0.975l-0.052-0.708h-0.022
							c-0.141,0.308-0.48,0.821-1.13,0.821c-0.739,0-1.27-0.637-1.27-2.187V2.524h1.123v2.7c0,0.729,0.17,1.17,0.569,1.17
							c0.31,0,0.495-0.298,0.562-0.544c0.03-0.092,0.044-0.205,0.044-0.339V2.524h1.123V5.933L113.278,5.933z"/>
						<path id="Shape_33_" fill="#FFF" d="M114.18,4.125c0-0.626-0.015-1.15-0.029-1.602h0.975l0.052,0.698h0.022
							c0.148-0.328,0.51-0.811,1.115-0.811c0.739,0,1.293,0.688,1.293,2.166v2.967h-1.123V4.761c0-0.647-0.163-1.088-0.569-1.088
							c-0.31,0-0.495,0.298-0.576,0.585c-0.03,0.103-0.037,0.246-0.037,0.39v2.895h-1.123V4.125L114.18,4.125z"/>
						<path id="Shape_34_" fill="#FFF" d="M118.509,2.523h1.123v5.02h-1.123V2.523L118.509,2.523z M119.063,1.866
							c-0.377,0-0.621-0.37-0.621-0.831c0-0.472,0.251-0.831,0.635-0.831c0.384,0,0.621,0.359,0.628,0.831
							c0,0.462-0.244,0.831-0.635,0.831H119.063L119.063,1.866z"/>
						<path id="Shape_35_" fill="#FFF" d="M123.245,7.42c-0.199,0.133-0.576,0.236-1.004,0.236c-1.168,0-1.914-0.996-1.914-2.577
							c0-1.468,0.724-2.669,2.069-2.669c0.295,0,0.62,0.072,0.857,0.195l-0.177,1.16c-0.133-0.082-0.333-0.154-0.628-0.154
							c-0.591,0-0.975,0.585-0.968,1.406c0,0.924,0.443,1.417,0.99,1.417c0.266,0,0.473-0.062,0.643-0.164L123.245,7.42
							L123.245,7.42z"/>
						<path id="Shape_36_" fill="#FFF" d="M125.816,5.172c-0.591,0-1.049,0.195-1.049,0.79c0,0.4,0.192,0.596,0.443,0.596
							c0.273,0,0.51-0.257,0.584-0.575c0.015-0.082,0.022-0.174,0.022-0.267V5.172L125.816,5.172z M126.901,6.333
							c0,0.472,0.015,0.934,0.059,1.211h-1.012l-0.067-0.503h-0.022c-0.236,0.4-0.606,0.616-1.034,0.616
							c-0.731,0-1.167-0.739-1.167-1.54c0-1.304,0.842-1.92,2.12-1.92V4.136c0-0.267-0.104-0.647-0.658-0.647
							c-0.369,0-0.761,0.174-0.997,0.369l-0.207-0.996c0.251-0.195,0.746-0.452,1.404-0.452c1.205,0,1.581,0.985,1.581,2.166V6.333
							L126.901,6.333z"/>
						<path id="Shape_37_" fill="#FFF" d="M130.507,7.42c-0.199,0.133-0.576,0.236-1.005,0.236c-1.167,0-1.913-0.996-1.913-2.577
							c0-1.468,0.724-2.669,2.069-2.669c0.295,0,0.621,0.072,0.857,0.195l-0.177,1.16c-0.133-0.082-0.333-0.154-0.628-0.154
							c-0.591,0-0.975,0.585-0.968,1.406c0,0.924,0.443,1.417,0.99,1.417c0.266,0,0.473-0.062,0.643-0.164L130.507,7.42
							L130.507,7.42z"/>
						<path id="Shape_38_" fill="#FFF" d="M131.127,2.523h1.123v5.02h-1.123V2.523L131.127,2.523z M131.681,1.866
							c-0.377,0-0.621-0.37-0.621-0.831c0-0.472,0.251-0.831,0.635-0.831c0.384,0,0.62,0.359,0.628,0.831
							c0,0.462-0.244,0.831-0.635,0.831H131.681L131.681,1.866z"/>
						<path id="Shape_39_" fill="#FFF" d="M136.011,0.357l-0.902,1.56h-0.768l0.635-1.56H136.011L136.011,0.357z M134.836,6.537
							c0.443,0,0.716-0.606,0.716-1.509c0-0.739-0.207-1.499-0.716-1.499c-0.532,0-0.739,0.76-0.739,1.509
							c0,0.852,0.259,1.499,0.731,1.499H134.836L134.836,6.537z M134.814,7.656c-1.057,0-1.87-0.965-1.87-2.587
							c0-1.622,0.768-2.659,1.936-2.659c1.101,0,1.84,1.057,1.84,2.577c0,1.827-0.938,2.669-1.899,2.669H134.814L134.814,7.656z"/>
						<path id="Shape_40_" fill="#FFF" d="M137.414,4.125c0-0.626-0.015-1.15-0.03-1.602h0.975l0.052,0.698h0.022
							c0.148-0.328,0.51-0.811,1.116-0.811c0.738,0,1.293,0.688,1.293,2.166v2.967h-1.123V4.761c0-0.647-0.163-1.088-0.569-1.088
							c-0.31,0-0.495,0.298-0.576,0.585c-0.03,0.103-0.037,0.246-0.037,0.39v2.895h-1.123V4.125L137.414,4.125z"/>
						<path id="Shape_41_" fill="#FFF" d="M144.078,2.523l0.539,2.464c0.059,0.298,0.133,0.667,0.177,0.934h0.022
							c0.051-0.267,0.111-0.647,0.162-0.934l0.443-2.464h1.204l-0.842,3.306c-0.517,1.992-0.865,2.782-1.271,3.285
							c-0.384,0.472-0.798,0.647-1.086,0.688l-0.236-1.314c0.141-0.041,0.318-0.133,0.488-0.267c0.17-0.123,0.362-0.38,0.465-0.626
							c0.037-0.082,0.059-0.154,0.059-0.226c0-0.051-0.007-0.133-0.044-0.257l-1.33-4.589H144.078L144.078,2.523z"/>
						<path id="Shape_42_" fill="#FFF" d="M152.278,7.359c-0.199,0.133-0.672,0.298-1.27,0.298c-1.722,0-2.608-1.499-2.608-3.48
							c0-2.361,1.211-3.665,2.719-3.665c0.583,0,1.027,0.164,1.226,0.308l-0.236,1.232c-0.222-0.133-0.539-0.257-0.946-0.257
							c-0.886,0-1.581,0.75-1.581,2.3c0,1.386,0.591,2.258,1.588,2.258c0.347,0,0.717-0.092,0.946-0.226L152.278,7.359
							L152.278,7.359z"/>
						<path id="Shape_43_" fill="#FFF" d="M156.246,5.933c0,0.657,0.015,1.191,0.03,1.612H155.3l-0.052-0.708h-0.022
							c-0.14,0.308-0.48,0.821-1.13,0.821c-0.739,0-1.271-0.637-1.271-2.187V2.524h1.123v2.7c0,0.729,0.17,1.17,0.569,1.17
							c0.31,0,0.495-0.298,0.562-0.544c0.029-0.092,0.044-0.205,0.044-0.339V2.524h1.123V5.933L156.246,5.933z"/>
						<rect id="Rectangle-path_4_" x="157.146" y="0.255" fill="#FFF" width="1.123" height="7.289"/>
						<path id="Shape_44_" fill="#FFF" d="M160.428,1.159v1.365h0.805v1.15h-0.805v1.827c0,0.606,0.111,0.883,0.443,0.883
							c0.155,0,0.229-0.01,0.333-0.041l0.007,1.181c-0.14,0.072-0.414,0.133-0.724,0.133c-0.362,0-0.665-0.174-0.85-0.431
							c-0.207-0.298-0.31-0.78-0.31-1.489V3.674h-0.48v-1.15h0.48V1.58L160.428,1.159L160.428,1.159z"/>
						<path id="Shape_45_" fill="#FFF" d="M165.289,5.933c0,0.657,0.015,1.191,0.03,1.612h-0.975l-0.052-0.708h-0.022
							c-0.14,0.308-0.48,0.821-1.13,0.821c-0.739,0-1.27-0.637-1.27-2.187V2.524h1.123v2.7c0,0.729,0.17,1.17,0.569,1.17
							c0.31,0,0.495-0.298,0.562-0.544c0.03-0.092,0.044-0.205,0.044-0.339V2.524h1.123V5.933L165.289,5.933z"/>
						<path id="Shape_46_" fill="#FFF" d="M166.196,4.177c0-0.739-0.007-1.222-0.03-1.653h0.96l0.044,0.934h0.03
							c0.185-0.739,0.621-1.047,0.975-1.047c0.104,0,0.155,0.01,0.236,0.031V3.91c-0.096-0.02-0.184-0.041-0.31-0.041
							c-0.414,0-0.694,0.298-0.768,0.791c-0.015,0.103-0.022,0.215-0.022,0.349v2.536h-1.123L166.196,4.177L166.196,4.177z"/>
						<path id="Shape_47_" fill="#FFF" d="M170.836,5.172c-0.591,0-1.049,0.195-1.049,0.79c0,0.4,0.192,0.596,0.443,0.596
							c0.273,0,0.51-0.257,0.584-0.575c0.015-0.082,0.022-0.174,0.022-0.267V5.172L170.836,5.172z M171.922,6.333
							c0,0.472,0.015,0.934,0.059,1.211h-1.012l-0.067-0.503h-0.022c-0.236,0.4-0.606,0.616-1.034,0.616
							c-0.731,0-1.167-0.739-1.167-1.54c0-1.304,0.842-1.92,2.12-1.92V4.136c0-0.267-0.103-0.647-0.657-0.647
							c-0.369,0-0.761,0.174-0.997,0.369l-0.207-0.996c0.251-0.195,0.746-0.452,1.404-0.452c1.204,0,1.581,0.985,1.581,2.166V6.333
							L171.922,6.333z"/>
					</g>
				</g>
			</g>
		</g>
	</g>
</g>
<text transform="matrix(1 0 0 1 27.6167 46.8225)"><tspan x="0" y="0" fill="#FFF" font-family="'MyriadPro-Regular'" font-size="12">Doctorado · Maestrías</tspan><tspan x="-17.651" y="10" fill="#FFF" font-family="'MyriadPro-Regular'" font-size="12">Especialidades · Licenciaturas</tspan></text>
</svg>
